<?xml version="1.0" encoding="UTF-8" standalone="no"?>

<svg version="1.1" id="Layer_1" xmlns="http://www.w3.org/2000/svg" xmlns:xlink="http://www.w3.org/1999/xlink" x="0px" y="0px"
	 width="150" height="40" viewBox="0 0 429 184" enable-background="new 0 0 429 184" xml:space="preserve">
<path fill="#FEFEFE" opacity="1.000000" stroke="none" 
	d="
M265.000000,185.000000 
	C176.666687,185.000000 88.833389,185.000000 1.000059,185.000000 
	C1.000039,123.666710 1.000039,62.333424 1.000020,1.000100 
	C143.999908,1.000067 286.999817,1.000067 429.999817,1.000033 
	C429.999878,62.333225 429.999878,123.666451 429.999939,184.999847 
	C375.166656,185.000000 320.333344,185.000000 265.000000,185.000000 
M305.499939,143.147552 
	C338.919006,143.147552 372.338104,143.147552 405.816406,143.147552 
	C405.816406,110.573685 405.816406,78.515511 405.816406,46.362442 
	C279.377502,46.362442 153.197601,46.362442 26.819801,46.362442 
	C26.819801,78.688736 26.819801,110.743973 26.819801,143.147552 
	C119.659622,143.147552 212.079773,143.147552 305.499939,143.147552 
z"/>
<path fill="#030303" opacity="1.000000" stroke="none" 
	d="
M304.999939,143.147552 
	C212.079773,143.147552 119.659622,143.147552 26.819801,143.147552 
	C26.819801,110.743973 26.819801,78.688736 26.819801,46.362442 
	C153.197601,46.362442 279.377502,46.362442 405.816406,46.362442 
	C405.816406,78.515511 405.816406,110.573685 405.816406,143.147552 
	C372.338104,143.147552 338.919006,143.147552 304.999939,143.147552 
M403.189392,80.085915 
	C403.189392,69.841202 403.189392,59.596485 403.189392,49.331135 
	C278.412872,49.331135 154.329880,49.331135 30.019596,49.331135 
	C30.019596,51.275955 30.019596,53.014774 30.019596,55.315247 
	C84.529503,55.315247 138.891434,55.315247 193.276794,55.315247 
	C193.276794,81.812004 193.276794,107.748047 193.276794,134.260971 
	C138.710236,134.260971 84.347710,134.260971 29.729513,134.260971 
	C29.844267,136.586090 29.929787,138.318893 30.012011,139.984924 
	C154.595673,139.984924 278.676910,139.984924 403.240265,139.984924 
	C403.240265,120.832405 403.240265,101.885841 403.711823,82.683601 
	C403.498810,82.128876 403.285797,81.574150 403.189392,80.085915 
M48.806770,85.684830 
	C48.806770,92.981041 48.806770,100.277245 48.806770,107.711632 
	C51.751396,108.400673 53.083797,107.967361 52.944054,104.786285 
	C52.721664,99.723877 52.884655,94.644531 52.884655,88.117653 
	C57.518917,94.743233 61.175373,100.215332 65.130920,105.461952 
	C66.179222,106.852409 68.147644,107.549171 70.388992,109.021149 
	C70.388992,98.843620 70.388992,90.067993 70.388992,81.216728 
	C69.068695,81.216728 67.974075,81.216728 66.369553,81.216728 
	C66.369553,87.311699 66.369553,93.163460 66.369553,100.502480 
	C61.714481,93.860390 58.030529,88.398109 54.080196,83.135803 
	C53.260170,82.043427 51.452076,81.692772 50.099350,81.000290 
	C49.668503,82.248474 49.237656,83.496658 48.806770,85.684830 
M111.536163,104.533340 
	C111.536163,101.783150 111.536163,99.032959 111.536163,95.966431 
	C115.519852,95.966431 119.148468,95.966431 123.978874,95.966431 
	C120.792114,89.418907 114.903404,94.147133 111.549408,91.479210 
	C111.549408,89.210442 111.549408,86.784645 111.549408,84.029160 
	C115.080986,84.029160 118.399048,84.107018 121.708206,83.969810 
	C122.456749,83.938774 123.174286,83.159966 123.906090,82.725357 
	C123.325729,82.142174 122.759018,81.069618 122.162872,81.052994 
	C117.259888,80.916306 112.351448,80.975800 107.493011,80.975800 
	C107.493011,90.363350 107.493011,98.970863 107.493011,107.721375 
	C113.287163,107.721375 118.848366,107.721375 124.409569,107.721375 
	C124.556488,107.344795 124.703407,106.968216 124.850327,106.591644 
	C123.888214,106.050446 122.953239,105.109489 121.958977,105.042007 
	C118.806351,104.828049 115.631607,104.940193 111.536163,104.533340 
M87.073578,103.306747 
	C87.073578,104.764305 87.073578,106.221863 87.073578,107.679413 
	C87.586227,107.935570 88.098877,108.191727 88.611534,108.447884 
	C89.383049,107.308250 90.786804,106.187881 90.822205,105.025818 
	C91.032509,98.122574 90.926079,91.209686 90.926079,84.351250 
	C99.244576,83.667625 99.244576,83.667625 99.504639,80.980591 
	C93.198380,80.980591 86.918480,80.926003 80.641853,81.044434 
	C79.784203,81.060616 78.942825,81.939499 78.093910,82.418961 
	C78.892525,82.952141 79.651367,83.854195 80.497650,83.945465 
	C82.571053,84.169067 84.684814,84.018509 87.073570,84.018509 
	C87.073570,90.459709 87.073570,96.400581 87.073578,103.306747 
M160.927063,82.868851 
	C159.966461,82.108223 159.005844,81.347588 157.305359,80.001114 
	C157.305359,90.157837 157.305359,98.895683 157.305359,107.721024 
	C162.949356,107.721024 168.353409,107.721024 175.067795,107.721024 
	C170.397461,102.755554 164.927582,106.673050 160.930649,104.249283 
	C160.930649,97.451515 160.930649,90.627762 160.927063,82.868851 
M136.931000,96.462990 
	C136.930878,92.303635 136.820114,88.140388 136.966003,83.986160 
	C137.080612,80.722366 135.665482,80.510391 133.432129,81.351395 
	C133.432129,90.464294 133.432129,99.186569 133.432129,108.199928 
	C139.135818,107.302071 144.845230,109.256615 149.951630,107.048943 
	C149.893982,106.359596 149.836319,105.670258 149.778671,104.980911 
	C145.551575,104.980911 141.324493,104.980911 136.931000,104.980911 
	C136.931000,102.068352 136.931000,99.756912 136.931000,96.462990 
M181.237564,99.422470 
	C181.237564,102.198540 181.237564,104.974602 181.237564,107.845261 
	C182.830154,107.845261 183.948822,107.845261 185.211517,107.845261 
	C185.211517,98.907028 185.211517,90.160149 185.211517,81.403450 
	C182.524460,80.413857 181.078522,80.776772 181.194244,84.045868 
	C181.363922,88.839340 181.237717,93.643280 181.237564,99.422470 
M35.598705,107.866898 
	C37.679512,108.314720 39.047527,108.156021 38.991169,105.352692 
	C38.844440,98.054527 39.045692,90.748146 38.814217,83.454376 
	C38.783932,82.500137 37.031593,81.600555 36.076866,80.675659 
	C35.753517,81.025269 35.430172,81.374878 35.106823,81.724487 
	C35.106823,90.175629 35.106823,98.626770 35.598705,107.866898 
z"/>
<path fill="#FBFBFB" opacity="1.000000" stroke="none" 
	d="
M403.240265,82.939285 
	C403.240265,101.885841 403.240265,120.832405 403.240265,139.984924 
	C278.676910,139.984924 154.595673,139.984924 30.012011,139.984924 
	C29.929787,138.318893 29.844267,136.586090 29.729513,134.260971 
	C84.347710,134.260971 138.710236,134.260971 193.276794,134.260971 
	C193.276794,107.748047 193.276794,81.812004 193.276794,55.315247 
	C138.891434,55.315247 84.529503,55.315247 30.019596,55.315247 
	C30.019596,53.014774 30.019596,51.275955 30.019596,49.331135 
	C154.329880,49.331135 278.412872,49.331135 403.189392,49.331135 
	C403.189392,59.596485 403.189392,69.841202 402.684021,80.528275 
	C394.731750,78.714218 392.715210,84.512581 390.003540,90.427742 
	C387.084290,84.446243 385.124939,78.229652 377.130280,81.490173 
	C380.414032,89.760437 388.407196,96.431404 386.050232,106.828735 
	C388.927460,106.828735 391.161804,106.828735 393.885132,106.828735 
	C392.457703,96.935387 397.685120,89.869064 403.240265,82.939285 
M310.446381,96.137367 
	C310.446381,99.707306 310.446381,103.277245 310.446381,106.665222 
	C313.315125,106.665222 315.385223,106.665222 317.332031,106.665222 
	C317.332031,97.937195 317.332031,89.561409 317.332031,81.145500 
	C307.817017,79.650352 308.226440,90.181564 302.677246,92.655006 
	C297.260712,89.429611 297.500061,79.551483 288.176575,81.153564 
	C288.176575,89.830688 288.176575,98.363960 288.176575,106.684937 
	C290.619720,106.684937 292.701447,106.684937 295.155029,106.684937 
	C295.155029,102.640007 295.155029,98.910400 295.155029,94.186775 
	C296.627686,95.906578 297.476196,96.814499 298.231750,97.794151 
	C301.560120,102.109871 303.873505,102.145378 307.152832,98.036072 
	C307.985870,96.992195 309.161774,96.221909 310.446381,96.137367 
M275.073242,82.131371 
	C272.363464,85.830971 269.653687,89.530579 266.731750,93.519844 
	C264.364655,90.281982 262.165100,87.738983 260.504333,84.882721 
	C258.465332,81.375870 255.927795,79.996246 252.131042,81.412834 
	C252.131042,89.997307 252.131042,98.402359 252.131042,106.729836 
	C254.516861,106.729836 256.599518,106.729836 259.278870,106.729836 
	C259.278870,102.653038 259.278870,98.849297 259.278870,95.388786 
	C261.933350,97.321800 264.382446,100.507515 266.735596,100.438133 
	C269.264557,100.363579 271.703430,97.233170 274.480530,95.219398 
	C274.480530,99.055321 274.480530,102.828514 274.480530,106.643951 
	C277.081268,106.643951 279.275604,106.643951 281.505890,106.643951 
	C281.505890,97.989227 281.505890,89.704468 281.505890,80.899544 
	C279.373322,81.122391 277.472870,81.320976 275.073242,82.131371 
M357.449402,107.003609 
	C358.401550,104.589973 359.353699,102.176346 360.606293,99.001183 
	C361.771332,100.110939 363.405670,100.929779 363.750549,102.121704 
	C365.396606,107.810623 369.492371,107.399208 374.396515,106.688538 
	C372.858368,103.834244 371.462708,101.244408 369.987885,98.507622 
	C373.578369,95.422005 375.710510,91.315704 373.354980,87.116997 
	C371.884033,84.495056 368.472839,82.071114 365.510956,81.389656 
	C361.311127,80.423370 356.723083,81.144463 352.303467,81.144463 
	C352.303467,89.962708 352.303467,98.338272 352.303467,107.006660 
	C353.891663,107.006660 355.198273,107.006660 357.449402,107.003609 
M246.153198,82.681709 
	C243.881653,81.946739 241.610107,81.211769 238.838516,80.315002 
	C238.838516,86.223228 238.828079,90.862312 238.842285,95.501312 
	C238.851395,98.474915 238.104111,100.953316 234.531036,100.902069 
	C231.222748,100.854622 230.531601,98.440178 230.513306,95.716805 
	C230.481049,90.919792 230.504288,86.122414 230.504288,81.326210 
	C227.844681,81.326210 225.620621,81.326210 223.156586,81.326210 
	C223.156586,86.792572 222.967819,91.936493 223.202774,97.060997 
	C223.520187,103.983414 228.096024,108.116455 234.880142,108.002724 
	C241.467163,107.892296 245.773865,103.843147 246.095612,97.123611 
	C246.310211,92.642166 246.151230,88.142838 246.153198,82.681709 
M204.420563,80.610001 
	C200.377487,81.602982 197.963409,84.036316 198.041855,88.334305 
	C198.120239,92.628502 200.794769,94.894684 204.653503,96.032639 
	C205.927292,96.408279 207.347900,96.491234 208.469772,97.120758 
	C209.658066,97.787560 210.645645,98.884270 211.522583,99.955544 
	C211.653351,100.115288 210.728195,101.675873 210.239395,101.704712 
	C208.828857,101.787933 207.314484,101.642357 205.981537,101.180603 
	C203.463379,100.308273 201.043533,99.152145 197.942947,97.843987 
	C199.001328,106.300674 204.874481,109.533943 212.521408,107.398140 
	C216.329346,106.334564 218.652115,104.142899 218.935028,100.139381 
	C219.224228,96.046753 216.921616,93.598503 213.381104,92.184555 
	C211.697861,91.512329 209.811600,91.336067 208.151398,90.622932 
	C207.015610,90.135056 205.999496,89.203789 205.185196,88.252243 
	C204.990280,88.024452 205.747223,86.380569 206.178162,86.329399 
	C207.577148,86.163284 209.138382,86.130363 210.435196,86.601753 
	C212.896957,87.496582 215.218719,88.776535 218.324493,90.238113 
	C217.393906,82.016830 213.488647,79.507103 204.420563,80.610001 
M322.775421,102.201302 
	C322.249084,103.681259 321.722778,105.161217 321.014709,107.152214 
	C324.485352,106.333672 327.711578,108.579910 330.252136,104.317688 
	C331.108124,102.881599 338.387787,102.859306 339.287842,104.317085 
	C341.997131,108.705200 345.018677,106.495697 348.553192,106.788216 
	C345.770172,99.725510 342.826447,93.374123 340.795288,86.743217 
	C339.195312,81.519920 336.412476,79.830376 330.999420,81.455391 
	C328.433228,87.921196 325.744904,94.694847 322.775421,102.201302 
z"/>
<path fill="#E4E4E4" opacity="1.000000" stroke="none" 
	d="
M48.806793,85.214836 
	C49.237656,83.496658 49.668503,82.248474 50.099350,81.000290 
	C51.452076,81.692772 53.260170,82.043427 54.080196,83.135803 
	C58.030529,88.398109 61.714481,93.860390 66.369553,100.502480 
	C66.369553,93.163460 66.369553,87.311699 66.369553,81.216728 
	C67.974075,81.216728 69.068695,81.216728 70.388992,81.216728 
	C70.388992,90.067993 70.388992,98.843620 70.388992,109.021149 
	C68.147644,107.549171 66.179222,106.852409 65.130920,105.461952 
	C61.175373,100.215332 57.518917,94.743233 52.884655,88.117653 
	C52.884655,94.644531 52.721664,99.723877 52.944054,104.786285 
	C53.083797,107.967361 51.751396,108.400673 48.806770,107.711632 
	C48.806770,100.277245 48.806770,92.981041 48.806793,85.214836 
z"/>
<path fill="#313131" opacity="1.000000" stroke="none" 
	d="
M403.476044,82.811447 
	C397.685120,89.869064 392.457703,96.935387 393.885132,106.828735 
	C391.161804,106.828735 388.927460,106.828735 386.050232,106.828735 
	C388.407196,96.431404 380.414032,89.760437 377.130280,81.490173 
	C385.124939,78.229652 387.084290,84.446243 390.003540,90.427742 
	C392.715210,84.512581 394.731750,78.714218 402.625732,80.995033 
	C403.285797,81.574150 403.498810,82.128876 403.476044,82.811447 
z"/>
<path fill="#EBEBEB" opacity="1.000000" stroke="none" 
	d="
M112.000786,104.729797 
	C115.631607,104.940193 118.806351,104.828049 121.958977,105.042007 
	C122.953239,105.109489 123.888214,106.050446 124.850327,106.591644 
	C124.703407,106.968216 124.556488,107.344795 124.409569,107.721375 
	C118.848366,107.721375 113.287163,107.721375 107.493011,107.721375 
	C107.493011,98.970863 107.493011,90.363350 107.493011,80.975800 
	C112.351448,80.975800 117.259888,80.916306 122.162872,81.052994 
	C122.759018,81.069618 123.325729,82.142174 123.906097,82.725357 
	C123.174286,83.159966 122.456749,83.938774 121.708206,83.969810 
	C118.399048,84.107018 115.080986,84.029160 111.549408,84.029160 
	C111.549408,86.784645 111.549408,89.210442 111.549408,91.479210 
	C114.903404,94.147133 120.792114,89.418907 123.978874,95.966431 
	C119.148468,95.966431 115.519852,95.966431 111.536163,95.966431 
	C111.536163,99.032959 111.536163,101.783150 112.000786,104.729797 
z"/>
<path fill="#F1F1F1" opacity="1.000000" stroke="none" 
	d="
M87.073578,102.824097 
	C87.073570,96.400581 87.073570,90.459709 87.073570,84.018509 
	C84.684814,84.018509 82.571053,84.169067 80.497650,83.945465 
	C79.651367,83.854195 78.892525,82.952141 78.093910,82.418961 
	C78.942825,81.939499 79.784203,81.060616 80.641853,81.044434 
	C86.918480,80.926003 93.198380,80.980591 99.504639,80.980591 
	C99.244576,83.667625 99.244576,83.667625 90.926079,84.351250 
	C90.926079,91.209686 91.032509,98.122574 90.822205,105.025818 
	C90.786804,106.187881 89.383049,107.308250 88.611534,108.447884 
	C88.098877,108.191727 87.586227,107.935570 87.073578,107.679413 
	C87.073578,106.221863 87.073578,104.764305 87.073578,102.824097 
z"/>
<path fill="#EFEFEF" opacity="1.000000" stroke="none" 
	d="
M160.928864,83.336426 
	C160.930649,90.627762 160.930649,97.451515 160.930649,104.249283 
	C164.927582,106.673050 170.397461,102.755554 175.067795,107.721024 
	C168.353409,107.721024 162.949356,107.721024 157.305359,107.721024 
	C157.305359,98.895683 157.305359,90.157837 157.305359,80.001114 
	C159.005844,81.347588 159.966461,82.108223 160.928864,83.336426 
z"/>
<path fill="#EFEFEF" opacity="1.000000" stroke="none" 
	d="
M136.931000,96.954231 
	C136.931000,99.756912 136.931000,102.068352 136.931000,104.980911 
	C141.324493,104.980911 145.551575,104.980911 149.778671,104.980911 
	C149.836319,105.670258 149.893982,106.359596 149.951630,107.048943 
	C144.845230,109.256615 139.135818,107.302071 133.432129,108.199928 
	C133.432129,99.186569 133.432129,90.464294 133.432129,81.351395 
	C135.665482,80.510391 137.080612,80.722366 136.966003,83.986160 
	C136.820114,88.140388 136.930878,92.303635 136.931000,96.954231 
z"/>
<path fill="#E3E3E3" opacity="1.000000" stroke="none" 
	d="
M181.237579,98.932617 
	C181.237717,93.643280 181.363922,88.839340 181.194244,84.045868 
	C181.078522,80.776772 182.524460,80.413857 185.211517,81.403450 
	C185.211517,90.160149 185.211517,98.907028 185.211517,107.845261 
	C183.948822,107.845261 182.830154,107.845261 181.237564,107.845261 
	C181.237564,104.974602 181.237564,102.198540 181.237579,98.932617 
z"/>
<path fill="#EAEAEA" opacity="1.000000" stroke="none" 
	d="
M35.352764,107.472404 
	C35.106823,98.626770 35.106823,90.175629 35.106823,81.724487 
	C35.430172,81.374878 35.753517,81.025269 36.076866,80.675659 
	C37.031593,81.600555 38.783932,82.500137 38.814217,83.454376 
	C39.045692,90.748146 38.844440,98.054527 38.991169,105.352692 
	C39.047527,108.156021 37.679512,108.314720 35.352764,107.472404 
z"/>
<path fill="#0A0A0A" opacity="1.000000" stroke="none" 
	d="
M310.313263,95.731636 
	C309.161774,96.221909 307.985870,96.992195 307.152832,98.036072 
	C303.873505,102.145378 301.560120,102.109871 298.231750,97.794151 
	C297.476196,96.814499 296.627686,95.906578 295.155029,94.186775 
	C295.155029,98.910400 295.155029,102.640007 295.155029,106.684937 
	C292.701447,106.684937 290.619720,106.684937 288.176575,106.684937 
	C288.176575,98.363960 288.176575,89.830688 288.176575,81.153564 
	C297.500061,79.551483 297.260712,89.429611 302.677246,92.655006 
	C308.226440,90.181564 307.817017,79.650352 317.332031,81.145500 
	C317.332031,89.561409 317.332031,97.937195 317.332031,106.665222 
	C315.385223,106.665222 313.315125,106.665222 310.446381,106.665222 
	C310.446381,103.277245 310.446381,99.707306 310.313263,95.731636 
z"/>
<path fill="#0A0A0A" opacity="1.000000" stroke="none" 
	d="
M275.322845,81.825470 
	C277.472870,81.320976 279.373322,81.122391 281.505890,80.899544 
	C281.505890,89.704468 281.505890,97.989227 281.505890,106.643951 
	C279.275604,106.643951 277.081268,106.643951 274.480530,106.643951 
	C274.480530,102.828514 274.480530,99.055321 274.480530,95.219398 
	C271.703430,97.233170 269.264557,100.363579 266.735596,100.438133 
	C264.382446,100.507515 261.933350,97.321800 259.278870,95.388786 
	C259.278870,98.849297 259.278870,102.653038 259.278870,106.729836 
	C256.599518,106.729836 254.516861,106.729836 252.131042,106.729836 
	C252.131042,98.402359 252.131042,89.997307 252.131042,81.412834 
	C255.927795,79.996246 258.465332,81.375870 260.504333,84.882721 
	C262.165100,87.738983 264.364655,90.281982 266.731750,93.519844 
	C269.653687,89.530579 272.363464,85.830971 275.322845,81.825470 
z"/>
<path fill="#070707" opacity="1.000000" stroke="none" 
	d="
M356.977142,107.005135 
	C355.198273,107.006660 353.891663,107.006660 352.303467,107.006660 
	C352.303467,98.338272 352.303467,89.962708 352.303467,81.144463 
	C356.723083,81.144463 361.311127,80.423370 365.510956,81.389656 
	C368.472839,82.071114 371.884033,84.495056 373.354980,87.116997 
	C375.710510,91.315704 373.578369,95.422005 369.987885,98.507622 
	C371.462708,101.244408 372.858368,103.834244 374.396515,106.688538 
	C369.492371,107.399208 365.396606,107.810623 363.750549,102.121704 
	C363.405670,100.929779 361.771332,100.110939 360.606293,99.001183 
	C359.353699,102.176346 358.401550,104.589973 356.977142,107.005135 
M365.422333,87.750298 
	C363.435272,87.453682 361.448181,87.157059 359.480560,86.863342 
	C359.480560,89.644135 359.480560,91.671196 359.480560,93.670807 
	C366.432220,94.017944 367.303558,93.253677 365.422333,87.750298 
z"/>
<path fill="#080808" opacity="1.000000" stroke="none" 
	d="
M246.156342,83.166611 
	C246.151230,88.142838 246.310211,92.642166 246.095612,97.123611 
	C245.773865,103.843147 241.467163,107.892296 234.880142,108.002724 
	C228.096024,108.116455 223.520187,103.983414 223.202774,97.060997 
	C222.967819,91.936493 223.156586,86.792572 223.156586,81.326210 
	C225.620621,81.326210 227.844681,81.326210 230.504288,81.326210 
	C230.504288,86.122414 230.481049,90.919792 230.513306,95.716805 
	C230.531601,98.440178 231.222748,100.854622 234.531036,100.902069 
	C238.104111,100.953316 238.851395,98.474915 238.842285,95.501312 
	C238.828079,90.862312 238.838516,86.223228 238.838516,80.315002 
	C241.610107,81.211769 243.881653,81.946739 246.156342,83.166611 
z"/>
<path fill="#0B0B0B" opacity="1.000000" stroke="none" 
	d="
M204.798645,80.466164 
	C213.488647,79.507103 217.393906,82.016830 218.324493,90.238113 
	C215.218719,88.776535 212.896957,87.496582 210.435196,86.601753 
	C209.138382,86.130363 207.577148,86.163284 206.178162,86.329399 
	C205.747223,86.380569 204.990280,88.024452 205.185196,88.252243 
	C205.999496,89.203789 207.015610,90.135056 208.151398,90.622932 
	C209.811600,91.336067 211.697861,91.512329 213.381104,92.184555 
	C216.921616,93.598503 219.224228,96.046753 218.935028,100.139381 
	C218.652115,104.142899 216.329346,106.334564 212.521408,107.398140 
	C204.874481,109.533943 199.001328,106.300674 197.942947,97.843987 
	C201.043533,99.152145 203.463379,100.308273 205.981537,101.180603 
	C207.314484,101.642357 208.828857,101.787933 210.239395,101.704712 
	C210.728195,101.675873 211.653351,100.115288 211.522583,99.955544 
	C210.645645,98.884270 209.658066,97.787560 208.469772,97.120758 
	C207.347900,96.491234 205.927292,96.408279 204.653503,96.032639 
	C200.794769,94.894684 198.120239,92.628502 198.041855,88.334305 
	C197.963409,84.036316 200.377487,81.602982 204.798645,80.466164 
z"/>
<path fill="#0A0A0A" opacity="1.000000" stroke="none" 
	d="
M322.915985,101.834900 
	C325.744904,94.694847 328.433228,87.921196 330.999420,81.455391 
	C336.412476,79.830376 339.195312,81.519920 340.795288,86.743217 
	C342.826447,93.374123 345.770172,99.725510 348.553192,106.788216 
	C345.018677,106.495697 341.997131,108.705200 339.287842,104.317085 
	C338.387787,102.859306 331.108124,102.881599 330.252136,104.317688 
	C327.711578,108.579910 324.485352,106.333672 321.014709,107.152214 
	C321.722778,105.161217 322.249084,103.681259 322.915985,101.834900 
M332.050262,97.624710 
	C333.881592,97.734673 335.712921,97.844627 338.051880,97.985069 
	C336.893250,94.948921 335.997009,92.600258 334.710266,89.228317 
	C333.520233,92.549408 332.755585,94.683350 332.050262,97.624710 
z"/>
<path fill="#E6E6E6" opacity="1.000000" stroke="none" 
	d="
M365.745056,87.995377 
	C367.303558,93.253677 366.432220,94.017944 359.480560,93.670807 
	C359.480560,91.671196 359.480560,89.644135 359.480560,86.863342 
	C361.448181,87.157059 363.435272,87.453682 365.745056,87.995377 
z"/>
<path fill="#DEDEDE" opacity="1.000000" stroke="none" 
	d="
M332.020599,97.221001 
	C332.755585,94.683350 333.520233,92.549408 334.710266,89.228317 
	C335.997009,92.600258 336.893250,94.948921 338.051880,97.985069 
	C335.712921,97.844627 333.881592,97.734673 332.020599,97.221001 
z"/>
</svg>